<?xml version="1.0" encoding="utf-8"?>
<!-- Generator: Adobe Illustrator 22.0.0, SVG Export Plug-In . SVG Version: 6.00 Build 0)  -->
<svg version="1.1" xmlns="http://www.w3.org/2000/svg" xmlns:xlink="http://www.w3.org/1999/xlink" x="0px" y="0px"
	 viewBox="0 0 1920 1080" style="enable-background:new 0 0 1920 1080;" xml:space="preserve">
<style type="text/css">
	.st0{fill:none;stroke:#000000;stroke-width:5;stroke-miterlimit:10;}
	.st1{fill:none;stroke:#000000;stroke-miterlimit:10;}
	.st2{fill:none;}
	.st3{stroke:#000000;stroke-miterlimit:10;}
</style>
<g id="Layer_1">
	<ellipse class="st0" cx="828.5" cy="453.5" rx="216" ry="130"/>
</g>
<g id="Layer_2">
	<g>
		<g>
			<path d="M749.3,468.1c1,2.7,2.7,5.2,5.3,6.6c2.3,1.2,4,0,5.6-1.7c1.3-1.4-0.8-3.5-2.1-2.1c-1.1,1.2-1.4,1.7-2.8,0.7
				c-1.5-1.1-2.5-2.6-3.1-4.2C751.6,465.5,748.6,466.3,749.3,468.1L749.3,468.1z"/>
		</g>
	</g>
	<g>
		<g>
			<path d="M894.3,445c0.2,8.7-0.4,20.5,5.4,27.8c2,2.5,5,3.5,7.8,1.7c3.7-2.4,4.5-7.8,5.1-11.8c1.2-8.5,0.6-17.8-3.9-25.3
				c-2.3-3.7-7.5-9.7-10.6-3.3c-0.8,1.7,1.7,3.3,2.6,1.5c1.9-3.9,6.2,4.5,7,6.3c2.4,5.5,2.7,12,2.2,17.9c-0.3,3-0.6,7.6-2.6,10.2
				c-4.5,5.7-7.7-3.2-8.5-6.4c-1.5-6-1.5-12.4-1.6-18.6C897.2,443.1,894.2,443.1,894.3,445L894.3,445z"/>
		</g>
	</g>
	<g>
		<g>
			<path class="st1" d="M898.8,435"/>
		</g>
	</g>
	<g>
		<g>
			<path d="M897.6,433.7c-0.7,1.3-1.2,2.7-1.5,4.2c-0.2,0.8,0.2,1.6,1,1.8c0.7,0.2,1.7-0.2,1.8-1c0.2-1.2,0.6-2.4,1.2-3.5
				C901.1,433.5,898.5,432,897.6,433.7L897.6,433.7z"/>
		</g>
	</g>
	<g>
		<g>
			<path d="M897,445.5c0.4-1.7,0.8-3.4,1.3-5.1c0.6-1.8-2.3-2.6-2.9-0.8c-0.5,1.7-1,3.3-1.3,5.1C893.7,446.6,896.6,447.4,897,445.5
				L897,445.5z"/>
		</g>
	</g>
	<g>
		<g>
			<path d="M752.6,439.6c0.4-0.7,0.8-1.5,1.3-2.1c0.4-0.5,0.9-1,1.5-0.8c0.8,0.3,1.6-0.3,1.8-1c0.2-0.8-0.3-1.6-1-1.8
				c-2.9-1-5.1,2.1-6.1,4.3C749.1,439.8,751.7,441.3,752.6,439.6L752.6,439.6z"/>
		</g>
	</g>
	<g>
		<g>
			<path d="M746.3,450.8c-0.3,3.5,0.4,6.9,0.9,10.3c0.3,1.9,3.2,1.1,2.9-0.8c-0.5-3.2-1.1-6.3-0.8-9.5
				C749.5,448.9,746.5,448.9,746.3,450.8L746.3,450.8z"/>
		</g>
	</g>
	<g>
		<g>
			<path d="M746.3,454c0.1,1.9,0.4,3.7,0.8,5.5c0.4,1.9,3.3,1.1,2.9-0.8c-0.3-1.6-0.6-3.1-0.7-4.7
				C749.2,452.1,746.2,452.1,746.3,454L746.3,454z"/>
		</g>
	</g>
	<g>
		<g>
			<path d="M746.5,456.6c-0.2,1.6,0.2,3.2,0.8,4.8c0.3,0.8,1,1.3,1.8,1c0.7-0.2,1.3-1.1,1-1.8c-0.5-1.3-0.8-2.6-0.7-4
				c0.1-0.8-0.7-1.5-1.5-1.5C747.2,455.1,746.6,455.8,746.5,456.6L746.5,456.6z"/>
		</g>
	</g>
	<g>
		<g>
			<path d="M761.8,458.1c0,1.9-0.1,3.7-0.5,5.5c-0.4,1.9,2.5,2.7,2.9,0.8c0.4-2.1,0.6-4.2,0.6-6.3
				C764.7,456.2,761.7,456.2,761.8,458.1L761.8,458.1z"/>
		</g>
	</g>
	<g>
		<g>
			<path d="M754.2,473.3c2.3,1.3,5.9,1.6,7.3-1.1c0.9-1.7-1.7-3.2-2.6-1.5c-0.6,1.1-2.3,0.5-3.2,0
				C754,469.8,752.5,472.4,754.2,473.3L754.2,473.3z"/>
		</g>
	</g>
	<g>
		<g>
			<path d="M755.4,473.7c2.6,2.4,5.8,0.4,6.9-2.4c0.3-0.8-0.3-1.6-1-1.8c-0.9-0.2-1.5,0.3-1.8,1c-0.3,0.6-1.2,1.7-1.9,1.1
				C756.1,470.3,754,472.4,755.4,473.7L755.4,473.7z"/>
		</g>
	</g>
	<g>
		<g>
			<path d="M761.3,448.8c0.3,2.3,0.4,4.6,0.3,7c-0.1,1.9,2.9,1.9,3,0c0.1-2.6,0-5.2-0.4-7.8C763.9,446.1,761,446.9,761.3,448.8
				L761.3,448.8z"/>
		</g>
	</g>
	<g>
		<g>
			<path d="M761.4,449.4c0.5,3.7,0.6,7.5,0.4,11.3c-0.1,1.9,2.9,1.9,3,0c0.2-3.8,0.1-7.5-0.4-11.3
				C764.2,447.5,761.2,447.5,761.4,449.4L761.4,449.4z"/>
		</g>
	</g>
	<g>
		<g>
			<path d="M761.9,457.1c0.1,4.1-0.7,8.1-2.3,11.9c-0.7,1.8,2.2,2.6,2.9,0.8c1.7-4.1,2.5-8.3,2.4-12.7
				C764.9,455.2,761.9,455.2,761.9,457.1L761.9,457.1z"/>
		</g>
	</g>
	<g>
		<g>
			<path d="M761.1,464.2c-0.2,1-1.8,7.4-3.8,6.3c-1.7-1-3.2,1.6-1.5,2.6c4.8,2.8,7.3-4.8,8.2-8.1
				C764.4,463.2,761.5,462.4,761.1,464.2L761.1,464.2z"/>
		</g>
	</g>
	<g>
		<g>
			<path d="M756.2,471.5c-0.9,0.1-2.6-1.7-3.2-2.3c-1-1-1.7-2.1-2.4-3.3c-0.9-1.7-3.5-0.2-2.6,1.5c1.6,3,5.1,7.5,9,7
				C758.9,474.1,758.1,471.2,756.2,471.5L756.2,471.5z"/>
		</g>
	</g>
	<g>
		<g>
			<path d="M753.1,469.1c-1.6-2.6-2.7-5.4-3.1-8.4c-0.2-1.9-3.2-1.9-3,0c0.4,3.6,1.6,6.9,3.5,9.9
				C751.6,472.3,754.2,470.8,753.1,469.1L753.1,469.1z"/>
		</g>
	</g>
	<g>
		<g>
			<path d="M750.6,463c-1-2.7-1.5-5.5-1.5-8.4c0-1.9-3-1.9-3,0c0,3.1,0.6,6.2,1.6,9.2C748.4,465.6,751.3,464.9,750.6,463L750.6,463z
				"/>
		</g>
	</g>
	<g>
		<g>
			<path d="M749.8,457.4c-0.9-2.8-1.2-5.7-0.8-8.6c0.3-1.9-2.6-2.7-2.9-0.8c-0.5,3.5-0.3,6.8,0.8,10.2
				C747.5,460,750.4,459.2,749.8,457.4L749.8,457.4z"/>
		</g>
	</g>
	<g>
		<g>
			<path d="M749.5,447.6c0.1-2.4,0.7-4.6,1.7-6.8c0.8-1.7-1.8-3.3-2.6-1.5c-1.2,2.6-1.9,5.4-2.1,8.3
				C746.4,449.5,749.4,449.5,749.5,447.6L749.5,447.6z"/>
		</g>
	</g>
	<g>
		<g>
			<path d="M751,442c0.5-2.2,1.6-4.1,3.1-5.7c1.3-1.4-0.8-3.5-2.1-2.1c-1.9,2-3.3,4.4-3.9,7.1C747.7,443.1,750.6,443.9,751,442
				L751,442z"/>
		</g>
	</g>
	<g>
		<g>
			<path d="M754.2,436.6c0.2-0.4,0.7-0.6,1.1-0.8c0.2-0.1,0.4-0.2,0.7-0.3c0.1-0.1,0.3-0.1,0.4-0.1c0.2,0,0.1,0-0.3-0.1
				c1.3,1.5,3.4-0.7,2.1-2.1c-1.1-1.2-2.7-0.7-3.9-0.2c-1.4,0.6-2.4,1.4-3,2.8c-0.3,0.8,0.3,1.6,1,1.8
				C753.2,437.9,753.9,437.4,754.2,436.6L754.2,436.6z"/>
		</g>
	</g>
	<g>
		<g>
			<path d="M756.6,435.6C756.5,435.5,756.6,435.5,756.6,435.6c0.1,0.1,0.2,0.1,0.3,0.2c0.1,0,0.2,0.1,0.1,0c0.1,0.1,0.2,0.2,0.3,0.3
				c0,0,0.2,0.2,0.1,0.1c-0.1-0.1,0.1,0.1,0.1,0.1c0.1,0.1,0.1,0.2,0.1,0.3c0.1,0.2-0.1-0.3,0,0.1c0.3,0.8,1,1.3,1.8,1
				c0.7-0.2,1.3-1.1,1-1.8c-0.5-1.5-1.6-2.6-3.1-3.2c-0.7-0.3-1.7,0.3-1.8,1C755.4,434.6,755.8,435.3,756.6,435.6L756.6,435.6z"/>
		</g>
	</g>
	<g>
		<g>
			<path d="M760.5,442.5c0.6,1.3,0.9,2.7,1,4.1c0.2,1.9,3.2,1.9,3,0c-0.2-2-0.6-3.8-1.4-5.6c-0.3-0.7-1.4-0.9-2.1-0.5
				C760.3,440.9,760.2,441.8,760.5,442.5L760.5,442.5z"/>
		</g>
	</g>
	<g>
		<g>
			<path d="M761.4,445.6c0.4,2.6,0.5,5.2,0.4,7.9c-0.1,1.9,2.9,1.9,3,0c0.1-2.9,0-5.8-0.5-8.7C764,442.9,761.1,443.7,761.4,445.6
				L761.4,445.6z"/>
		</g>
	</g>
	<g>
		<g>
			<path d="M760.6,436.4c0-0.2,0-0.5-0.1-0.7c-1,0.1-2,0.3-2.9,0.4c0.6,1.6,1.2,3.1,1.8,4.7c0.3,0.8,1,1.3,1.8,1
				c0.7-0.2,1.3-1.1,1-1.8c-0.6-1.6-1.2-3.1-1.8-4.7c-0.3-0.7-0.9-1.2-1.6-1.1c-0.7,0.1-1.4,0.7-1.3,1.5c0,0.2,0,0.5,0.1,0.7
				c0.1,0.8,0.6,1.5,1.5,1.5C759.9,437.9,760.7,437.2,760.6,436.4L760.6,436.4z"/>
		</g>
	</g>
	<path class="st2" d="M759.6,437.5c1.3,1.6,2.2,3.6,2.5,5.7"/>
	<g id="Layer_3">
		<g>
			<g>
				<path d="M633.2,404.5c3.6-50.8,11.6-101.3,24-150.7c3.1-12.4,6.5-24.7,10.2-36.9c3.4-11.3,6.6-23.1,13.7-32.6
					c14.7-19.6,40.8-23.8,63.6-24.8c52-2.4,104.1-3,156.1-4.4c11.9-0.3,25.4-2.3,36.9,1.7c11,3.9,19.4,13,26.1,22.2
					c13.7,18.9,22.8,40.8,30.2,62.8c9,26.9,15.8,54.5,21.4,82.3c2.8,13.8,5.3,27.6,7.7,41.5c1.2,6.9,2.4,13.9,3.5,20.8
					c0.4,2.2,4.3,21.4,1.7,21.3c-1.9-0.1-1.9,2.9,0,3c2.7,0.1,4-2,4.3-4.6c0.7-5.5-1.7-12.3-2.6-17.7c-2.2-13.2-4.4-26.5-6.8-39.7
					c-4.9-27-10.6-53.9-18-80.4c-6.7-23.9-14.4-47.9-26-70c-9.6-18.3-23.6-41.2-45.5-45.8c-12.5-2.6-26.3-0.7-39-0.3
					c-14.3,0.4-28.6,0.8-42.9,1.2c-28.3,0.8-56.5,1.6-84.8,2.4c-24.1,0.7-50.1-0.2-71.7,12.2c-9.2,5.3-16.7,12.9-21.6,22.4
					c-5.6,10.9-8.6,23.1-12,34.9c-16.8,58.4-27.3,118.6-31.6,179.3C630,406.4,633,406.4,633.2,404.5L633.2,404.5z"/>
			</g>
		</g>
		<g>
			<g>
				<path d="M727.5,203.2c16.6,16.4,30.3,35.3,40.7,56.2c0.6-0.7,1.1-1.5,1.7-2.2c-0.8-0.3-1.7-0.5-2.5-0.8
					c-1.8-0.6-2.6,2.3-0.8,2.9c0.8,0.3,1.7,0.5,2.5,0.8c1.3,0.4,2.2-1.1,1.7-2.2c-10.6-21.1-24.5-40.2-41.2-56.8
					C728.2,199.7,726.1,201.8,727.5,203.2L727.5,203.2z"/>
			</g>
		</g>
		<g>
			<g>
				<path d="M758.1,191.4c-5.1,10.9-9.6,22-13.4,33.4c-1.9,5.8-3.7,11.6-5.3,17.5c-0.4,1.5-4.9,18-4.6,18.1
					c-1.7-0.8-3.3,1.8-1.5,2.6c3.5,1.6,4.6-2,5.4-4.8c1.9-7.4,3.5-14.8,5.7-22.1c4.4-14.8,9.9-29.2,16.4-43.1
					C761.5,191.2,758.9,189.7,758.1,191.4L758.1,191.4z"/>
			</g>
		</g>
		<g>
			<g>
				<path d="M879.6,192.4c-0.1,0.1-0.1,0.2-0.2,0.2c0.6-0.1,1.2-0.2,1.8-0.2c0.1,0.2,0.2,0.4,0.3,0.5c-0.4,0.5-0.7,1-1.1,1.4
					c1.6-0.2,5.8,4.8,6.8,5.9c2.1,2.1,4,4.2,5.9,6.5c3.9,4.6,7.4,9.5,10.7,14.6c6.4,9.7,12.3,19.7,19.1,29.1
					c0.7-0.7,1.4-1.4,2.1-2.1c-0.2-0.2-0.4-0.5-0.6-0.7c-0.9-1.7-3.5-0.2-2.6,1.5c0.5,0.9,0.8,1.2,1.7,1.8c1.2,0.8,2.9-0.8,2.1-2.1
					c-8-11.2-14.8-23.2-22.7-34.5c-3.6-5.1-7.5-10.1-11.8-14.6c-2.6-2.8-7.1-9-11.4-8.3c-0.7,0.1-1.1,0.8-1.1,1.4
					c0,1.1,0.3,1.5,1.2,2.1c0.5,0.3,1.4,0.2,1.8-0.2c0.1-0.1,0.1-0.2,0.2-0.2C883,193,880.9,190.9,879.6,192.4L879.6,192.4z"/>
			</g>
		</g>
		<g>
			<g>
				<path d="M915.3,191.1c-7.9,14.4-15.9,28.7-23.6,43.1c-3,5.7-6.9,11.9-8.5,18.1c-0.7,2.5,0,6.1,3.5,4.9c1.8-0.7,1-3.6-0.8-2.9
					c0.1,0,0.8-2.6,0.9-2.9c0.7-1.8,1.5-3.6,2.3-5.4c1.1-2.4,2.3-4.8,3.6-7.2c2.6-4.9,5.3-9.8,8-14.7c5.8-10.5,11.5-21,17.3-31.6
					C918.8,190.9,916.2,189.4,915.3,191.1L915.3,191.1z"/>
			</g>
		</g>
	</g>
</g>
<g id="Layer_4">
	<ellipse class="st1" cx="900.5" cy="223.5" rx="41" ry="43"/>
</g>
<g id="Layer_5">
	<g>
		<g>
			<path d="M729.8,112.3c-12.6-0.5-14.2-18.9-7-26.3c8.4-8.6,21.1-5.8,26.7,4.2c10.7,19.3,8.1,42.6,8.9,63.7c0.1,1.9,3.1,1.9,3,0
				c-0.6-15.5,0.4-31.2-2.7-46.5c-2.3-11-6.9-26.4-19.4-29.2c-10-2.2-20.8,4.1-23.3,14c-2.4,9.5,2.8,22.5,13.9,23
				C731.7,115.4,731.7,112.4,729.8,112.3L729.8,112.3z"/>
		</g>
	</g>
	<g>
		<g>
			<path d="M731.2,113.9c5.3-6.8,7.9,3.9,8.8,7.3c1.1,4.1,1.8,8.3,2.2,12.5c0.8,7.6,0.8,15.2,0.8,22.9c0,1.9,3,1.9,3,0
				c0-12.1,0-24.4-3.1-36.1c-0.9-3.5-2.1-9.5-5.5-11.7c-3.3-2.1-6.4,0.5-8.4,3.1C727.9,113.3,730,115.4,731.2,113.9L731.2,113.9z"/>
		</g>
	</g>
	<g>
		<g>
			<path d="M758,152c0,1.6,0,3.2,0,4.8c0,1.9,3,1.9,3,0c0-1.6,0-3.2,0-4.8C761,150.1,758,150.1,758,152L758,152z"/>
		</g>
	</g>
	<g>
		<g>
			<path d="M869.9,153.2c-0.8-8.6-1.1-17.3-0.6-25.9c0.2-4,0.7-8.1,1.7-12c0.4-1.6,0.9-3.2,1.5-4.7c0.5-1.4,1.2-2.8,1.9-4.1
				c0.5-1.6,1.7-2.5,3.6-2.7c-0.5,1.9,2.4,2.7,2.9,0.8c0.7-2.5-1.2-5-4-4.6c-4.4,0.7-6.6,7.8-7.7,11.3c-4.3,13.1-3.3,28.3-2.1,41.8
				C867.1,155.1,870.1,155.2,869.9,153.2L869.9,153.2z"/>
		</g>
	</g>
	<g>
		<g>
			<path d="M877.4,104.3c0.4,3.1,3.4,5,6.4,3.6c3.7-1.7,4-7,4.2-10.5c0.3-6.1-1.1-12.3-4.8-17.2c-2.3-3.1-6.5-7.3-10.8-6.6
				c-4.4,0.7-7.7,5.7-9.4,9.4c-2.9,6.2-3.3,13.3-3.9,19.9c-1.6,15.6-3.9,31.8-3.3,47.5c0.1,1.9,3.1,1.9,3,0
				c-0.6-17.2,2-35.1,3.8-52.2c0.5-4.6,1.1-9.4,3.1-13.7c0.9-2,2.3-5,4.3-6.1c3.4-1.9,5.9-1.5,8.6,0.9c3.2,2.9,5.3,7,6.1,11.3
				c0.4,2.2,0.6,4.6,0.5,6.8c-0.1,1.5-0.2,3-0.5,4.5c-0.1,2.3-1.5,3.1-4,2.4C880.1,102.4,877.1,102.4,877.4,104.3L877.4,104.3z"/>
		</g>
	</g>
	<g>
		<g>
			<path d="M855.5,147.8c-0.1,1.9,0,3.8,0.2,5.7c0.1,0.8,1.1,1.2,1.8,1c0.9-0.2,1.2-1,1-1.8c-0.2-1.6-0.2-3.2-0.1-4.9
				C858.6,145.8,855.6,145.8,855.5,147.8L855.5,147.8z"/>
		</g>
	</g>
	<g>
		<g>
			<path d="M663.4,216.4c-1.1,1-4.3,0.9-5.7,0.6c-1.5-0.3-3.1-1.2-4.5-1.8c-2.1-0.9-4.1-2-5.9-3.4c-5-3.6-9.2-10.1-6.4-16.3
				c6.2-13.5,24.3,1.5,26.8,10.5c0.5,1.9,3.4,1.1,2.9-0.8c-3.2-11.7-26.5-28-32.8-10c-2.6,7.5,1.8,14.9,7.8,19.2
				c4.8,3.5,14.5,9.2,20,4.2C666.9,217.2,664.8,215.1,663.4,216.4L663.4,216.4z"/>
		</g>
	</g>
	<g>
		<g>
			<path d="M974.5,191.7c3.2-9.7,15.2-20.5,25.2-11.8c5.3,4.6,7.8,14,1.7,18.8c-3.4,2.7-14.4,8.2-18.1,3.9c-1.3-1.5-3.4,0.7-2.1,2.1
				c5,5.8,16,0.2,21-3c7.4-4.7,7.1-13,2.8-20.1c-3.7-6.2-10.8-8.9-17.9-7.2c-8,1.9-13.2,8.9-15.6,16.4
				C971,192.8,973.9,193.6,974.5,191.7L974.5,191.7z"/>
		</g>
	</g>
	<g>
		<g>
			<path d="M907.2,409.3c-11.8-15.4-30.2,10.7-35.1,20.1c-7.2,14-7.4,33.5,6.8,43.3c7.5,5.2,17.8,6.9,26.8,6.9
				c8.5,0.1,16.7-2.4,23.5-7.5c13.1-9.9,18.1-27.3,12.3-42.6c-6.8-17.9-26.4-27.2-44.6-22.3c-1.9,0.5-1.1,3.4,0.8,2.9
				c14.1-3.7,29.8,1.5,37.8,14c7.6,11.8,7.4,27.6-1.2,38.8c-9.8,12.9-25.2,15.5-40.4,12.5c-7.4-1.5-14.6-4.4-19-10.8
				c-3.8-5.5-5.2-12.5-4.6-19.1c0.8-8.9,5.3-17.1,10.7-24c4.4-5.7,16.2-20.2,23.7-10.5C905.7,412.4,908.3,410.9,907.2,409.3
				L907.2,409.3z"/>
		</g>
	</g>
	<g>
		<g>
			<path d="M708.9,562.8c-6.2-7.5-21.1,28.2-22.6,32.8c-5.3,16.8-6.1,34.7-2.5,51.9c0.4,1.9,3.3,1.1,2.9-0.8
				c-3-14.3-2.9-29.2,0.6-43.4c1.7-7.1,4.1-14,7.4-20.6c0.8-1.6,11.2-19,12.1-17.8C708,566.4,710.1,564.3,708.9,562.8L708.9,562.8z"
				/>
		</g>
	</g>
	<g>
		<g>
			<path d="M947,566.3c14.9,0.3,20,19.8,23.7,31.1c4.4,13.2,7.4,26.8,9.1,40.6c0.2,1.9,3.2,1.9,3,0c-2-16.5-5.8-32.8-11.7-48.4
				c-4.2-11.3-9.9-26-24.1-26.3C945.1,563.2,945.1,566.2,947,566.3L947,566.3z"/>
		</g>
	</g>
	<g>
		<g>
			<path d="M980.5,638.7c11.2,3.5,22.4,7.1,33.7,10.5c5.6,1.7,11.2,3.3,16.8,4.9c4.8,1.3,11,1.9,15.3,4.8c4.8,3.3,1.3,8.5-3.1,10
				c-2.4,0.8-5.1,1-7.6,1.5c-5.6,1-11.1,2.2-16.6,3.6c-11.3,2.9-22.3,6.5-33.1,10.9c-1.8,0.7-1,3.6,0.8,2.9
				c13.4-5.4,27.2-9.7,41.4-12.8c6.7-1.5,25.3-1.7,23.8-12.9c-0.5-3.7-3.7-5.8-6.9-7.1c-6.5-2.7-13.9-3.9-20.7-5.9
				c-14.4-4.2-28.7-8.8-43-13.3C979.5,635.3,978.7,638.2,980.5,638.7L980.5,638.7z"/>
		</g>
	</g>
	<g>
		<g>
			<path d="M685.1,642.8c-14-3.6-28.1-1.4-42.1,1.1c-3.7,0.7-7.5,1.3-11.2,2c-2.3,0.4-7.1,0.4-9,1.9c-3.1,2.4-0.8,7.2,0.6,9.9
				c5.5,10.4,18,16.8,28.3,21.2c6.5,2.7,13.3,4.7,20.2,6c3.2,0.6,6.5,1.1,9.7,1.5c2.2,0.3,4.4,0.5,6.6,0.7c1.4,0.1,5.9-0.2,6.9,0.8
				c-0.1-0.6-0.2-1.2-0.2-1.8c0.2-0.1,0.4-0.2,0.6-0.3c0.5,0.4,1,0.7,1.4,1.1c0-0.1-0.1-0.2-0.1-0.3c-0.7-1.8-3.6-1-2.9,0.8
				c0,0.1,0.1,0.2,0.1,0.3c0.2,0.6,0.8,1.2,1.4,1.1c1-0.1,1.5-0.3,2-1.2c0.3-0.6,0.2-1.3-0.2-1.8c-2.4-2.5-8.6-1.6-11.8-1.9
				c-6.7-0.7-13.5-1.7-20-3.4c-11.5-3-23.5-8.3-32.6-16.1c-2.7-2.3-11.7-11.4-6.8-14.4c2.2-1.3,6.8-1.2,9.4-1.7
				c3.1-0.6,6.2-1.1,9.3-1.7c13.1-2.3,26.5-4.3,39.6-1C686.2,646.2,687,643.3,685.1,642.8L685.1,642.8z"/>
		</g>
	</g>
	<g>
		<g>
			<path d="M692.6,687.5c0.5,28.2,2.4,56.4,5.6,84.5c2.7,23.6,4.6,49.4,18,69.7c1.1,1.6,3.7,0.1,2.6-1.5
				c-13.8-20.8-15.4-48-18.1-72.1c-3-26.8-4.7-53.7-5.2-80.6C695.6,685.6,692.6,685.6,692.6,687.5L692.6,687.5z"/>
		</g>
	</g>
	<g>
		<g>
			<path d="M983.3,689.5c2.2,45.4-2.4,90.9-13.5,135.1c-0.5,1.9,2.4,2.7,2.9,0.8c11.1-44.4,15.7-90.2,13.6-135.9
				C986.2,687.6,983.2,687.6,983.3,689.5L983.3,689.5z"/>
		</g>
	</g>
	<g>
		<g>
			<path d="M716.9,841.2c-2.1,13.5-3.8,27.1-4.7,40.7c-0.4,6.3,0.1,17.4,9.3,16.3c4.6-0.6,7.5-4.2,9.9-7.8
				c3.3-4.9,6.9-9.3,11.1-13.5c7.5-7.4,15.6-14.3,20.6-23.8c0.7-1.4-0.7-2.7-2.1-2.1c-0.4,0.2-0.9,0.4-1.3,0.6
				c-1.8,0.8-0.2,3.4,1.5,2.6c0.4-0.2,0.9-0.4,1.3-0.6c-0.7-0.7-1.4-1.4-2.1-2.1c-4,7.7-10.1,13.6-16.3,19.5
				c-5.8,5.5-10.9,11.1-15.4,17.7c-1.5,2.2-3.7,5.7-6.6,6.1c-4,0.6-6.1-1.8-6.9-5.3c-0.9-4.3,0-9.2,0.3-13.5
				c0.9-11.4,2.3-22.8,4.1-34.1C720.1,840.1,717.2,839.3,716.9,841.2L716.9,841.2z"/>
		</g>
	</g>
	<g>
		<g>
			<path d="M761,851.2c7,2.7,14.2,4.5,21.6,5.8c1.9,0.3,2.7-2.6,0.8-2.9c-7.4-1.2-14.6-3.1-21.6-5.8
				C760,847.6,759.2,850.5,761,851.2L761,851.2z"/>
		</g>
	</g>
	<g>
		<g>
			<path d="M970.9,821.5c-1.7,4.4-1.3,9.1-4,13.2c-2.7,4.3-7,7-11.9,8.1c-1.9,0.4-1.1,3.3,0.8,2.9c5-1.1,9.3-3.7,12.5-7.8
				c3.8-4.9,3.4-10.2,5.5-15.7C974.5,820.5,971.6,819.8,970.9,821.5L970.9,821.5z"/>
		</g>
	</g>
	<g>
		<g>
			<path d="M760.7,852c40.9,17.7,87.6,19.5,129.7,4.8c1.8-0.6,1-3.5-0.8-2.9c-41.3,14.4-87.2,12.8-127.4-4.5
				C760.4,848.6,758.9,851.2,760.7,852L760.7,852z"/>
		</g>
	</g>
	<g>
		<g>
			<path d="M866.9,863.6c9-2.1,17.8-4.9,26.4-8.3c1.8-0.7,1-3.6-0.8-2.9c-8.6,3.4-17.4,6.2-26.4,8.3
				C864.3,861.2,865.1,864.1,866.9,863.6L866.9,863.6z"/>
		</g>
	</g>
	<g>
		<g>
			<path d="M891.9,853.1c5.8,11,11.9,21.9,19.9,31.4c3.7,4.5,7.8,8.6,12.4,12.1c3.7,2.9,7.9,5.9,12.6,3.1c4.1-2.5,5.1-7.3,5-11.7
				c-0.2-7-1.6-14.1-2.5-21c-0.4-3.4-1.7-7.7-1.4-11.2c0.4-4.6,4.1-4.1,7.7-4.8c5.5-1.1,10.4-3.6,14.8-7c1.5-1.2-0.6-3.3-2.1-2.1
				c-5.3,4.2-10.9,5.8-17.4,6.7c-2.7,0.4-5.2,1.2-6,4.2c-1.1,4.4,1,10.8,1.5,15.2c0.8,6.1,1.7,12.2,2.3,18.4
				c0.3,3.3,0.4,7.9-2.5,10.2c-4.5,3.5-9.7-1.7-12.6-4.2c-4.1-3.5-7.8-7.5-11.2-11.7c-7.1-8.9-12.6-18.9-17.9-29
				C893.6,849.9,891,851.4,891.9,853.1L891.9,853.1z"/>
		</g>
	</g>
	<g>
		<g>
			<path d="M967.7,840c2.1-1.2,3.5-0.8,4.4,1.3c0.7,0.9,1.3,1.8,2,2.8c1.4,1.8,2.7,3.7,4.1,5.5c2.5,3.3,5.1,6.5,7.8,9.6
				c5.5,6.5,11.4,12.8,17.6,18.7c12.4,11.6,26.4,21.6,41.8,28.7c15.2,7,31.7,11.1,48.6,11c19,0,37.7-4.9,55.4-11.6
				c1.8-0.7,1-3.6-0.8-2.9c-30,11.4-61.7,15.9-92.5,4.7c-28.2-10.3-51.4-30.4-70.2-53.2c-3-3.7-5.9-7.4-8.7-11.2
				c-1.6-2.2-3.2-5.3-5.6-6.8c-3-1.8-7.1-0.3-6.8,3.5C964.8,841.9,967.8,841.9,967.7,840L967.7,840z"/>
		</g>
	</g>
	<g>
		<g>
			<path d="M1131.6,889.7c3.3,2.1,38.1,25.3,37.7,26.1c-0.9,1.7,1.7,3.2,2.6,1.5c0.8-1.6,0.3-2.6-0.9-3.9c-3.2-3.3-8.3-5.8-12-8.5
				c-8.5-6-17-12.3-25.8-17.8C1131.4,886.1,1129.9,888.7,1131.6,889.7L1131.6,889.7z"/>
		</g>
	</g>
	<g>
		<g>
			<path d="M1156.8,879.6c-2.3,16.6-12.6,30.3-21.1,44.2c-1,1.7,1.6,3.2,2.6,1.5c8.7-14.1,19.1-28.1,21.4-44.9
				C1160,878.5,1157.1,877.7,1156.8,879.6L1156.8,879.6z"/>
		</g>
	</g>
	<g>
		<g>
			<path d="M984.5,684.2c-1.6,0.9-2.8,2.5-3.3,4.4c-0.3,1.4,1.4,2.6,2.5,1.5c0.3-0.3,0.6-0.6,0.9-0.9c1.4-1.4-0.8-3.5-2.1-2.1
				c-0.3,0.3-0.6,0.6-0.9,0.9c0.8,0.5,1.7,1,2.5,1.5c0.3-1.1,0.9-2,1.9-2.6C987.7,685.9,986.2,683.3,984.5,684.2L984.5,684.2z"/>
		</g>
	</g>
	<g>
		<g>
			<path d="M983.7,685.6c-0.5,2.3-0.7,4.6-0.7,6.9c0,1.9,3,1.9,3,0c0-2.1,0.1-4.1,0.6-6.1C986.9,684.5,984,683.7,983.7,685.6
				L983.7,685.6z"/>
		</g>
	</g>
</g>
<g id="Layer_6">
	<g>
		<path d="M751.1,655c-0.9,0.7-1.7-1.1-1.4-2.2c1.7-6.1,8-10.1,14.3-10.2s12.3,3.4,16.4,8.2c2.4,2.8,4.4,6.2,4.9,9.9
			c1,6.4-2.3,12.9-6.9,17.5c-4.6,4.7-11.1,8.8-11.4,15.4c-0.2,3.6,1.5,6.9,2.6,10.3c1.1,3.4,1.4,7.6-1.2,10.1
			c-2.8,2.7-7.6,1.9-10.4-0.8c-2.8-2.7-3.9-6.6-4.6-10.4c-0.8-4.2-1.1-8.7,0.9-12.4c1.4-2.5,3.6-4.4,5.4-6.7
			c3.6-4.7,4.7-11.2,2.9-16.9c-1.8-5.6-6.6-10.3-12.2-12"/>
		<g>
			<path d="M750.7,653.5c0.6-1.2,1.2-2.4,2-3.6c0.9-1.3,2-2.3,3.2-3.2c1.4-0.9,2.9-1.7,4.5-2.1c4.5-1.3,9.3,0,13.2,2.3
				c9,5.4,13.1,15.9,7.5,25.3c-3.6,6.1-10.3,9.4-13.8,15.4c-3.5,6.1-0.6,11.1,1.1,17.2c0.6,2.4,1.2,6-1,8c-2.4,2.2-6.2,1.1-8.3-0.8
				c-3.3-2.9-4.3-8.3-4.7-12.5c-0.5-5.4,1.1-8.8,4.4-12.7c1.8-2.1,3.4-4.1,4.5-6.7c4.6-11.1-1.6-23.1-12.6-26.9
				c-1.8-0.6-2.6,2.3-0.8,2.9c9.5,3.3,14.6,13.5,10.6,23c-1.6,3.6-4.6,5.9-6.7,9.2c-1.9,2.9-2.5,6.2-2.4,9.6
				c0.2,5.8,1.7,13.5,6.8,17.1c3.8,2.7,9.7,2.7,12.4-1.5c4.5-6.9-3.2-14.2-1.9-21.3c1.5-7.8,11.1-12.1,15-18.6
				c7.7-12.8-0.8-28.4-14.7-32c-6.4-1.7-13.6,0.2-18,5.3c-1.6,1.9-5.5,10.5,0.4,9.3C753.4,656.1,752.6,653.2,750.7,653.5
				L750.7,653.5z"/>
		</g>
	</g>
	<g>
		<path d="M827.5,583.6c1.8,2.1,1.3,5.1,1.2,7.8c-0.1,2.7,0.9,6.1,3.6,6.5c0.7,0.1,1.3,0,2,0c3.3,0.1,5.8,2.9,7.2,5.8
			s2.4,6.1,4.7,8.5c3.3,3.5,8.6,4.4,12.3,7.5c2.3,2,3.9,4.8,6.6,6.1c4,2,8.8-0.1,13.2-0.8c4.9-0.8,9.9,0.1,14.8,0.2
			c4.9,0.1,10.3-0.8,13.8-4.3c3.4-3.6,3.6-10.4-0.7-12.9c-0.9-0.5-1.9-0.8-2.9-1.2c-0.9-0.4-1.7-0.8-2.6-1.3c-1.7-0.9-3.6-2.1-3.7-4
			c-0.3-3.2,4.1-4.3,6.3-6.6c4.2-4.5-0.4-13,3.6-17.6"/>
		<g>
			<path d="M826.2,584.4c2.9,4.6-1.4,12.9,5.7,15.1c2.6,0.8,3.6-0.4,6.1,2c1.8,1.7,2.6,4,3.6,6.1c1.3,2.7,2.5,5.1,4.9,7.1
				c3,2.5,7,3.4,10.1,5.7c2.9,2.1,4.7,5.6,8.1,7.2c3.5,1.6,7.1,0.6,10.7-0.1c5.2-1,9.8-0.9,15-0.6c6.3,0.4,14.1,0,18.3-5.5
				c2.7-3.5,3.2-9,0.4-12.5c-2-2.5-5.2-2.3-7.6-4.3c-5.4-4.5,0.2-5.3,2.9-8.2c4.7-5.1,0.1-12.6,3.9-17.9c1.1-1.6-1.5-3.1-2.6-1.5
				c-3.7,5.2,0.5,12.7-3.4,17.3c-2.3,2.7-7.3,3.6-6.7,8c0.9,6.3,10.7,5,12.2,10.8c2.8,10.8-12.9,11.1-19.3,10.7
				c-3.5-0.2-7.1-0.4-10.6,0.1c-5.9,0.9-10.2,3.1-15.2-1.7c-2.4-2.3-4.1-4.3-7.1-5.9c-3.4-1.8-6.8-2.9-9.1-6.1
				c-3.3-4.5-4.2-11.7-10.4-13.4c-0.8-0.2-1.9,0-2.7-0.2c-3.4-1-3-3.6-3-6.5c0-2.7,0-4.9-1.5-7.2
				C827.7,581.3,825.1,582.8,826.2,584.4L826.2,584.4z"/>
		</g>
	</g>
	<g>
		<path d="M847.2,759.2c-0.4-3.1,2.5-5.8,5.5-6.4c3.1-0.6,6.2,0.5,9.1,1.5c2.9,1.1,6,2.2,9.1,1.8c2.5-0.3,4.8-1.5,6.9-2.9
			c3.3-2.1,6.3-4.8,8.3-8.1c1.3-2.1,2.2-4.6,4-6.3c3.6-3.4,9.8-2.5,13.2,1c3.4,3.6,4.2,9,3.2,13.8c-0.2,1.2-0.6,2.4-1.5,3.2
			c-1,0.9-2.5,1.1-3.8,1.4c-2.4,0.6-4.7,2-6.1,4c-3.4,5-0.8,11.7,2.2,16.9c3,5.2,6.6,11.1,4.8,16.8c-0.2,0.6-0.5,1.3-1,1.6
			c-0.4,0.3-0.9,0.4-1.5,0.5c-9,1.5-18.6-4.5-21.3-13.2c-0.5-1.5-0.7-3.1-1.4-4.5c-1.8-4.1-6.3-6.3-10.5-7.6
			c-4.3-1.3-8.8-2.1-12.4-4.7c-3.3-2.4-5.5-6.1-6-10.1"/>
		<g>
			<path d="M848.7,759.2c0.1-9.7,13.7-2.6,18.1-1.8c2.7,0.5,5.2,0.3,7.8-0.7c7.4-2.9,10.9-8.6,15-14.8c4.4-6.7,13-3.4,15.1,3.3
				c0.5,1.7,0.7,3.6,0.6,5.4c-0.2,4.2-2.7,5.3-6,6.6c-5.3,2.1-7.9,6.8-7.3,12.3c0.9,8.4,9.1,14.8,8.9,23.3
				c-0.1,5.6-6.7,4.2-10.4,2.8c-4.3-1.6-8-4.9-10-9c-1.5-3.1-1.6-6.5-3.8-9.3c-1.8-2.3-4.4-3.9-7.1-5c-8.5-3.6-18.3-3.8-20.3-14.9
				c-0.3-1.9-3.2-1.1-2.9,0.8c1.3,7.3,6.2,11.7,13,14c4.1,1.4,8.6,2,12.3,4.5c4.2,2.8,4.2,7.2,6.2,11.3c2.8,5.6,8.3,9.8,14.4,11.1
				c5,1.1,10.7,1.1,11.5-4.9c1.1-8.6-6.2-14.9-8.3-22.7c-0.9-3.2-1-6.9,1.5-9.5c1.8-1.9,4.2-2.2,6.5-3c2.6-0.9,3.8-2.6,4.4-5.2
				c1.4-5.7-0.1-12.7-4.9-16.4c-4.6-3.5-11.3-3.3-15,1.2c-1,1.3-1.7,2.8-2.5,4.2c-1.9,3.2-4.1,5.7-7.1,7.9c-1.9,1.4-4.1,2.9-6.5,3.4
				c-3.7,0.9-7.2-0.7-10.6-1.9c-6.1-2-15.5-2-15.6,6.6C845.6,761.2,848.6,761.2,848.7,759.2L848.7,759.2z"/>
		</g>
	</g>
	<g>
		<path d="M704,808.3c-0.2-5-0.4-10-0.6-15.1c-0.1-3.2-0.2-6.6,1.6-9.1c0.8-1.2,2-2.2,3-3.2c3.4-3.8,4.3-10,2-14.7
			c-0.7-1.5-1.7-2.9-2.2-4.5c-1.5-4.6,1.3-9.6,0.3-14.4c-1-4.8-9.9-2.8-5.8-7.8c4.2-5.1-7.7-14.5-6.1-19"/>
		<g>
			<path d="M705.5,808.3c-0.2-6-1-12.3-0.6-18.3c0.3-5.8,5.7-8.4,7.2-13.7c1-3.6,0.8-7.4-0.7-10.8c-1.5-3.5-2.7-6-2.2-10
				c0.3-2.5,0.9-4.9,0.6-7.4c-0.3-2.4-1.3-3.8-3.5-5c-1-0.5-3.1-0.8-3.3-2c-0.1-0.5,1.5-2.6,1.7-3.4c0.4-2.6-1-5.1-2.3-7.3
				c-1.4-2.4-5.4-6.5-4.8-9.5c0.4-1.9-2.5-2.7-2.9-0.8c-1.3,6.2,6.4,10.2,6.9,16c0.2,2.5-2.8,4.4-1.6,6.9c1,2.1,3.9,1.8,5.4,3.2
				c3.7,3.3-0.5,11.5,0.9,16c0.8,2.5,2.5,4.6,3.1,7.1c0.8,3.3,0,6.8-1.9,9.6c-2.6,3.9-5.3,5.4-5.7,10.4c-0.5,6.3,0.3,12.8,0.6,19.1
				C702.6,810.2,705.6,810.2,705.5,808.3L705.5,808.3z"/>
		</g>
	</g>
	<path class="st3" d="M726.5,764.5"/>
	<path class="st3" d="M715.5,729.5"/>
	<g>
		<path d="M772.2,855c-1.4-4.7-2.8-9.5-2.8-14.5s1.8-10.1,5.7-13.1c4.8-3.7,11.6-3.5,16.9-6.3c1.7-0.9,3.9-2,5.3-0.7
			c0.6,0.6,0.8,1.4,0.9,2.3c0.8,5.7-2.1,11.4-6.2,15.6c-0.8,0.8-1.6,1.8-1.2,2.8c0.4,1,1.7,1.2,2.8,1.2c13.2,0.1,26.4,0.2,39.6,0.2
			c4,0,8.8,0.6,10.3,4.3c0.7,1.9,0.3,4-0.6,5.8c-1.1,2.6-5.8-0.8-7.6,1.2c-1.2,1.3,0.1,3.4-0.3,5.1c-0.6,2.7-4.3,2.8-7,2.5
			c-6.6-0.7-13.3,0-19.7,1.9"/>
		<g>
			<path d="M773.7,854.6c-2.3-7.9-5.4-18.5,1.4-25.2c3.1-3.1,7.6-3.7,11.7-4.8c2.2-0.6,8.8-4.2,10.2-0.4c1.4,3.8-3.2,9.9-5.3,12.4
				c-1.1,1.3-2.8,2.8-2.2,4.8c1.3,4.3,11.1,2.3,14.2,2.4c8.6,0.1,17.2,0.1,25.8,0.2c3.1,0,6.7-0.4,9.7,0.8c3.2,1.2,5.2,6.7,1.2,7.3
				c-1,0.2-2.1-0.5-3.2-0.3c-1.1,0.1-2.2,0.5-2.9,1.4c-0.4,0.5-0.6,1.2-0.7,1.9c0,0.9,0,1.8,0.2,2.7c-1.1,1.9-2.5,2.7-4.3,2.4
				c-3.3,0.4-6.9-0.5-10.2-0.2c-3.8,0.3-7.4,1-11,2c-1.9,0.5-1.1,3.4,0.8,2.9c4.2-1.2,8.5-1.9,12.9-2c3.4-0.1,7.1,0.8,10.4,0.2
				c1.7-0.4,3.2-1.1,4-2.7c0.5-1,0.2-1.4,0.5-2.6c0.4-1.6-0.9-0.7,0.9-2.1c1.4-1.1,1-0.5,2.3-0.5c4-0.3,6.2-2.1,5.6-6.9
				c-0.5-4.6-5-6.4-9-6.9c-8.1-0.9-16.7-0.3-24.9-0.3c-4.6,0-9.2-0.1-13.9-0.1c-1.4,0-4.6,0.7-4.5-1.4c0.1-0.8,2.7-3.1,3.2-4
				c2.4-3.6,5.8-11.7,2.2-15.7c-3.2-3.6-10.1,1.4-13.5,2.3c-6.7,1.7-12.7,3.7-15.7,10.6c-3.2,7.4-1,15.5,1.2,22.9
				C771.3,857.2,774.2,856.5,773.7,854.6L773.7,854.6z"/>
		</g>
	</g>
	<g>
		<path d="M979.3,791.5c-4.1-2.4-5.1-8.6-2.1-12.3c0.6-0.7,1.2-1.2,1.6-2c0.7-1.6-0.2-3.5-1-5.1c-2.9-5.2-6-10.8-5.1-16.7
			c0.8-5.4,5.5-10,10.9-10.8"/>
		<g>
			<path d="M980.1,790.2c-2.4-1.7-3.6-4.6-2.9-7.5c0.5-2,2.2-3,2.9-4.8c0.9-2.1,0.2-4-0.7-6c-2.3-4.7-5.6-9.3-5.4-14.8
				c0.2-5.8,4.5-10,9.9-11.1c1.9-0.4,1.1-3.3-0.8-2.9c-11.3,2.3-14.2,13.6-10,23.2c0.7,1.7,1.6,3.2,2.4,4.9c1.5,3,2.3,3.4,0.6,6.8
				c-0.9,1.7-1.9,2.9-2.1,4.9c-0.5,4,1.3,7.4,4.5,9.7C980.1,793.9,981.6,791.3,980.1,790.2L980.1,790.2z"/>
		</g>
	</g>
</g>
<g id="Layer_7">
	<g>
		<g>
			<path d="M1091,535.3c40.7,7,82.5,11.1,123.4,3.5c37.1-7,71.9-23,104.1-42.4c18.8-11.3,36.8-23.9,54.4-37c1.5-1.1,0-3.7-1.5-2.6
				c-29.9,22.2-61.1,43-95,58.6c-36,16.5-74.1,25.1-113.7,24.5c-23.8-0.4-47.5-3.4-70.9-7.5C1089.9,532.1,1089.1,535,1091,535.3
				L1091,535.3z"/>
		</g>
	</g>
	<g>
		<g>
			<path d="M1090.9,536.1c-4.6,19-9.1,38.1-10.6,57.6c-1.4,18.5-0.1,37.3,4.2,55.4c7.4,31.3,24.5,61,50.7,80.1
				c25,18.3,60.2,25.3,88.2,9.8c27-14.9,44.2-48.7,46.5-78.7c1.3-17.3-4.3-34.8-18.5-45.5c-13.8-10.4-32.4-10.5-46.7-1.1
				c-1.6,1.1-0.1,3.7,1.5,2.6c13.7-9,31.5-8.8,44.4,1.6c12.8,10.3,17.5,26.4,16.3,42.4c-2.2,29-18.9,61.8-45,76.1
				c-26.7,14.7-60,8.1-84-8.9c-25-17.7-41.7-45.6-49.5-74.9c-4.9-18.3-6.5-37.4-5.4-56.2c1.2-20.2,5.9-39.9,10.7-59.5
				C1094.2,535,1091.4,534.2,1090.9,536.1L1090.9,536.1z"/>
		</g>
	</g>
	<g>
		<g>
			<path d="M1369.5,461.4c7.7-5.3,13.7-12.3,18-20.6c-0.9-0.3-1.9-0.5-2.8-0.8c-1.9,23-12.3,44.6-27.4,61.9
				c-7.4,8.4-15.8,15.9-24.8,22.5c-4.5,3.3-9.2,6.4-13.9,9.4c-4.1,2.5-11.2,8.5-16.2,7.9c-1.9-0.2-1.9,2.8,0,3
				c4.9,0.6,10.1-3.7,14.1-6.1c5.3-3.2,10.5-6.5,15.5-10.1c10-7.1,19.3-15.2,27.4-24.5c15.7-17.9,26.3-40.1,28.3-64
				c0.1-1.5-2.1-2-2.8-0.8c-4.1,7.9-9.6,14.5-16.9,19.6C1366.4,459.9,1367.9,462.5,1369.5,461.4L1369.5,461.4z"/>
		</g>
	</g>
	<g>
		<g>
			<path d="M1332.1,530.9c11.8-5,22.9-11.3,33.9-17.8c9.4-5.5,18-10.7,22.4-21c0.8-1.8-1.8-3.3-2.6-1.5c-4.8,11-14.7,16.1-24.6,21.8
				c-9.9,5.8-20,11.4-30.7,15.9C1328.8,529.1,1330.3,531.6,1332.1,530.9L1332.1,530.9z"/>
		</g>
	</g>
	<g>
		<g>
			<path d="M1384.7,491.2c-1.2,12.6-2.4,25.4-6.6,37.4c-4.2,11.9-11.7,21.9-21.4,29.8c-19.6,15.8-44.5,21.9-66.4,33.6
				c-1.7,0.9-0.2,3.5,1.5,2.6c23-12.3,49.4-18.6,69.4-36.1c8.8-7.7,15.5-17.3,19.5-28.3c4.5-12.5,5.8-25.9,7-39
				C1387.8,489.3,1384.8,489.3,1384.7,491.2L1384.7,491.2z"/>
		</g>
	</g>
	<g>
		<g>
			<path d="M1287.9,593.7c20,19.6,48.1,30.7,76.3,27.5c27-3,51.1-18.3,67.2-39.9c1-1.4-1.3-3.1-2.4-1.8c-3.9,4.7-5.3,10.2-6.4,16.1
				c-1.2,6.4-2.5,12.6-4.8,18.7c-4.8,12.7-12.6,24.3-22.8,33.2c-11.2,9.8-25.2,15.8-40,17.2c-7.2,0.7-14.6,0.2-21.6-1.3
				c-7.3-1.6-13.8-4.8-20.6-7.7c-13.4-5.6-27.2-4-37.4,7c-1.3,1.4,0.8,3.5,2.1,2.1c5.3-5.8,12.5-9.5,20.5-9.6
				c7.8-0.1,14.8,3.9,21.8,6.9c12,5.1,25.1,7,38.1,5.3c25.6-3.3,47-20.1,58.7-42.9c3.1-6,5.5-12.4,7.1-19c2-8,1.9-17.4,7.5-24
				c-0.8-0.6-1.6-1.2-2.4-1.8c-15.7,21.1-39.7,36.1-66.1,38.6c-26.9,2.6-53.5-8-72.7-26.8C1288.6,590.2,1286.5,592.3,1287.9,593.7
				L1287.9,593.7z"/>
		</g>
	</g>
	<g>
		<g>
			<path d="M1277.9,660.1c-4.4,3-8.4,6.5-11.8,10.6c-1.2,1.5,0.9,3.6,2.1,2.1c3.3-3.9,7-7.3,11.2-10.2
				C1281,661.6,1279.5,659,1277.9,660.1L1277.9,660.1z"/>
		</g>
	</g>
	<g>
		<g>
			<path d="M1270.9,664.6c-2.3,2.7-4,5.7-5.3,9c-0.7,1.8,2.2,2.6,2.9,0.8c1.1-2.8,2.6-5.3,4.5-7.6
				C1274.2,665.2,1272.1,663.1,1270.9,664.6L1270.9,664.6z"/>
		</g>
	</g>
	<g>
		<g>
			<path d="M581.5,523.4c-41.3,7.1-83.8,11.2-125.2,2.8c-36.5-7.4-70.6-23.5-102.3-42.8c-18-11-35.3-23.1-52.2-35.6
				c-1.6-1.2-3,1.5-1.5,2.6c30.8,22.8,63,44.4,98.1,60c35.9,16,73.7,24.2,113,23.4c23.8-0.4,47.4-3.5,70.8-7.6
				C584.2,526,583.4,523.1,581.5,523.4L581.5,523.4z"/>
		</g>
	</g>
	<g>
		<g>
			<path d="M579.5,527.9c8.2,34.2,14.6,68.3,8.1,103.4c-5.6,30.1-19.8,59.2-42.9,79.7c-21.9,19.5-53.5,30.6-82.3,21.2
				c-29.1-9.5-47-39.1-53.8-67.4c-4.3-17.9-3.4-37.9,9.8-51.9c12.9-13.6,33-15.8,48.7-5.6c1.6,1.1,3.1-1.5,1.5-2.6
				c-12.7-8.3-29.1-9.4-42.4-1.8c-12.8,7.4-20.8,20.9-22.6,35.4c-2,16.6,2.7,33.6,9.4,48.6c6.3,14.1,15.4,27.4,27.6,37
				c25.1,19.6,59.7,17.9,86.7,3.1c28.1-15.4,47.9-43.9,57.7-74c6.5-19.6,9-40.5,8.3-61.1c-0.8-22-5.9-43.5-11-64.9
				C581.9,525.2,579,526,579.5,527.9L579.5,527.9z"/>
		</g>
	</g>
	<g>
		<g>
			<path d="M305.3,449.8c-7.3-5.1-12.9-11.7-16.9-19.6c-0.7-1.3-2.9-0.7-2.8,0.8c2,23.9,12.6,46.1,28.3,64c7.9,9,17,16.9,26.7,24
				c5,3.6,10.2,7,15.4,10.2c4.2,2.5,9.7,7.2,14.8,6.6c1.9-0.2,1.9-3.2,0-3c-5,0.6-12-5.3-16.2-7.9c-4.5-2.8-9-5.8-13.3-8.9
				c-9.2-6.7-17.9-14.4-25.4-23c-15.1-17.3-25.5-38.8-27.4-61.9c-0.9,0.3-1.9,0.5-2.8,0.8c4.3,8.3,10.3,15.3,18,20.6
				C305.4,453.5,306.9,450.9,305.3,449.8L305.3,449.8z"/>
		</g>
	</g>
	<g>
		<g>
			<path d="M342.7,519.3c-10.6-4.5-20.7-10-30.7-15.9c-9.9-5.8-19.8-10.8-24.6-21.8c-0.8-1.8-3.3-0.2-2.6,1.5
				c4.5,10.4,13.1,15.5,22.4,21c11,6.5,22.1,12.8,33.9,17.8C343,522.6,344.5,520.1,342.7,519.3L342.7,519.3z"/>
		</g>
	</g>
	<g>
		<g>
			<path d="M285.6,482.2c1.2,12.8,2.4,25.9,6.7,38.2c4,11.4,10.8,21.2,19.8,29.1c20,17.5,46.4,23.8,69.4,36.1
				c1.7,0.9,3.2-1.7,1.5-2.6c-21.9-11.7-46.9-17.8-66.4-33.6c-9.5-7.7-17-17.4-21.2-29c-4.4-12.2-5.7-25.3-6.9-38.2
				C288.4,480.3,285.4,480.3,285.6,482.2L285.6,482.2z"/>
		</g>
	</g>
	<g>
		<g>
			<path d="M383.3,582.5c-19.1,18.8-45.7,29.3-72.7,26.8c-26.4-2.5-50.4-17.5-66.1-38.6c-0.8,0.6-1.6,1.2-2.4,1.8
				c4.9,5.8,5.3,13.8,6.8,21c1.2,5.9,3.1,11.6,5.5,17.2c5,11.3,12.4,21.7,21.7,29.9c19.6,17.2,47.7,23.1,72.5,14.4
				c7.9-2.8,15.3-7.7,23.7-8.7c9-1,17.5,3,23.5,9.4c1.3,1.4,3.4-0.7,2.1-2.1c-8.2-8.8-20.1-12.5-31.7-9.1c-6.9,2.1-13.1,5.8-20,8.1
				c-7.2,2.3-14.7,3.5-22.3,3.4c-29-0.3-53.9-18.9-66-44.7c-3.2-6.9-5.4-14.1-6.8-21.6c-1.3-6.9-2.3-13.7-7-19.2
				c-1.1-1.3-3.4,0.4-2.4,1.8c16.1,21.6,40.2,36.9,67.2,39.9c28.1,3.2,56.2-7.9,76.3-27.5C386.8,583.3,384.7,581.2,383.3,582.5
				L383.3,582.5z"/>
		</g>
	</g>
	<g>
		<g>
			<path d="M393.9,653.7c4.2,2.8,7.9,6.3,11.2,10.2c1.2,1.5,3.4-0.7,2.1-2.1c-3.4-4.1-7.4-7.6-11.8-10.6
				C393.8,650,392.3,652.6,393.9,653.7L393.9,653.7z"/>
		</g>
	</g>
	<g>
		<g>
			<path d="M400.3,657.7c1.9,2.3,3.4,4.9,4.5,7.6c0.7,1.8,3.6,1,2.9-0.8c-1.3-3.3-3.1-6.2-5.3-9
				C401.2,654.1,399.1,656.2,400.3,657.7L400.3,657.7z"/>
		</g>
	</g>
</g>
</svg>
